<svg xmlns="http://www.w3.org/2000/svg" xml:space="preserve" width="45" height="45" style="enable-background:new 0 0 45 45" viewBox="0 0 45 45"><defs><clipPath id="a" clipPathUnits="userSpaceOnUse"><path d="M0 36h36V0H0v36Z"/></clipPath></defs><g clip-path="url(#a)" transform="matrix(1.25 0 0 -1.25 0 45)"><path d="M0 0c1.226-2.195 1.855 1.361 9.313 2.625 7.457 1.264 13.728-4.454 13.859-5.413.131-.958-4.448-9.462-9.463-9.462h-15.71C-6.143-12.25-9.023-5.026-6-.812c0 0 4.5 3.5 6 .812" style="fill:#d99e82;fill-opacity:1;fill-rule:nonzero;stroke:none" transform="translate(12.75 18.25)"/><path d="M0 0c-4.989-6.937-6.04-11.864-2.259-11.864-4.142 0-6.577 6.187-4.468 11.031.463 1.064 1.758 2.492 1.758 2.492l4.179.008C-.627 1.347-.191.301 0 0" style="fill:#c1694f;fill-opacity:1;fill-rule:nonzero;stroke:none" transform="translate(13.008 17.864)"/><path d="M0 0c6.672 2.682 15.729 3.171 15.859 2.212.131-.958-4.448-9.462-9.463-9.462H-8.25C-12.393-7.25-7.018-2.821 0 0" style="fill:#e1e8ed;fill-opacity:1;fill-rule:nonzero;stroke:none" transform="translate(20.063 13.25)"/><path d="M0 0c6 1.312 10.468 1.282 10.563.587.079-.578-1.559-3.907-3.973-6.454C8.794-3.063 8.01.246 0 0" style="fill:#292f33;fill-opacity:1;fill-rule:nonzero;stroke:none" transform="translate(25.36 14.875)"/><path d="M0 0c1.562 4.937 10.439 4.143 10.063-.687-.378-4.829-6.454-7.86-4.18-11.324-1.586-1.38-5.015-.913-6.727-.833A149.082 149.082 0 0 0 .969-9.438C3.884-4.203-1.163-3.674 0 0" style="fill:#3e721d;fill-opacity:1;fill-rule:nonzero;stroke:none" transform="translate(7.125 29.875)"/><path d="M0 0c.568 1.1.549-.106 3.352-.142 1.554-.02 1.463.56 1.664 1.621.042.223.776-1.616 2.061-1.807 3.554-.531 1.879-1.94 0-2.261-.901-.154-2.01-.319-3.937-.155C.62-2.532-.628-1.216 0 0" style="fill:#ffcc4d;fill-opacity:1;fill-rule:nonzero;stroke:none" transform="translate(1.893 26.955)"/><path d="M0 0c.044-.625.506-1.511.506-1.511C-.51-2.984-5.137-4.527-6.848-4.44c.096.627.283 1.362.627 2.096C-4.377-1.873-1.561-1.273 0 0" style="fill:#f5f8fa;fill-opacity:1;fill-rule:nonzero;stroke:none" transform="translate(12.502 19.375)"/><path d="M0 0a1.296 1.296 0 1 0-2.591 0A1.296 1.296 0 0 0 0 0" style="fill:#292f33;fill-opacity:1;fill-rule:nonzero;stroke:none" transform="translate(11.708 29.849)"/></g></svg>